{"accessors" : [{"bufferView" : 0, "byteOffset" : 0, "componentType" : 5123, "count" : 480, "type" : "SCALAR", "max" : [479], "min" : [0]}, {"bufferView" : 1, "byteOffset" : 0, "componentType" : 5126, "count" : 480, "type" : "VEC3", "max" : [22.860000610351562, 45.81774139404297, 45.720001220703125], "min" : [-22.860000610351562, -0.02844216860830784, -45.720001220703125], "name" : "POSITION"}, {"bufferView" : 1, "byteOffset" : 12, "componentType" : 5126, "count" : 480, "type" : "VEC3", "max" : [1.0000044107437134, 1.0000044107437134, 1.000003457069397], "min" : [-1.0000044107437134, -1.0000044107437134, -1.0000044107437134], "name" : "NORMAL"}, {"bufferView" : 1, "byteOffset" : 24, "componentType" : 5126, "count" : 480, "type" : "VEC2", "max" : [0.9889438152313232, -0.012729225680232048], "min" : [0.0069991350173950195, -0.9926156997680664], "name" : "TEXCOORD_0"}], "asset" : {"generator" : "Aspose.3D 22.1", "version" : "2.0"}, "buffers" : [{"uri" : "data:application/octet-stream;base64,", "byteLength" : 16328}], "bufferViews" : [{"buffer" : 0, "byteOffset" : 0, "byteLength" : 960, "target" : 34963}, {"buffer" : 0, "byteOffset" : 964, "byteLength" : 15360, "byteStride" : 32, "target" : 34962}], "materials" : [{"name" : "", "pbrMetallicRoughness" : {"baseColorFactor" : [0, 0, 0, 1], "metallicFactor" : 0, "roughnessFactor" : 0}, "emissiveFactor" : [0, 0, 0], "alphaMode" : "OPAQUE", "doubleSided" : false}], "meshes" : [{"primitives" : [{"attributes" : {"POSITION" : 1, "NORMAL" : 2, "TEXCOORD_0" : 3}, "indices" : 0, "material" : 0, "mode" : 4}], "name" : ""}], "nodes" : [{"matrix" : [0.01, 0, 0, 0, 0, 0.01, 0, 0, 0, 0, 0.01, 0, 0, 0, 0, 1], "mesh" : 0, "name" : "Tea_Table"}], "scene" : 0, "scenes" : [{"nodes" : [0]}]}