{
    "asset": {
        "version": "1.0",
        "generator": "Open Asset Import Library (assimp v4.1.0)"
    },
    "accessors": {
        "mesh_accessor": {
            "bufferView": "mesh_view",
            "byteOffset": 0,
            "byteStride": 0,
            "componentType": 5126,
            "count": 284,
            "type": "VEC3",
            "max": [
                22.860000610351564,
                45.81774139404297,
                45.720001220703128
            ],
            "min": [
                -22.860000610351564,
                -0.02844216860830784,
                -45.720001220703128
            ]
        },
        "mesh_accessor_0": {
            "bufferView": "mesh_view_0",
            "byteOffset": 0,
            "byteStride": 0,
            "componentType": 5126,
            "count": 284,
            "type": "VEC3",
            "max": [
                1.0,
                1.0,
                0.9999992251396179
            ],
            "min": [
                -1.0,
                -1.0,
                -1.0
            ]
        },
        "mesh_accessor_1": {
            "bufferView": "mesh_view_1",
            "byteOffset": 0,
            "byteStride": 0,
            "componentType": 5126,
            "count": 284,
            "type": "VEC2",
            "max": [
                0.9889438152313232,
                0.9872707724571228
            ],
            "min": [
                0.0069991350173950199,
                0.007384300231933594
            ]
        },
        "mesh_accessor_2": {
            "bufferView": "mesh_view_2",
            "byteOffset": 0,
            "byteStride": 0,
            "componentType": 5123,
            "count": 480,
            "type": "SCALAR",
            "max": [
                283.0
            ],
            "min": [
                0.0
            ]
        }
    },
    "buffers": {
        "../../download/6ug3l6g06yqk/6ug3l6g06yqk": {
            "byteLength": 10048,
            "type": "arraybuffer",
            "uri": "../../download/6ug3l6g06yqk/6ug3l6g06yqk.bin"
        }
    },
    "bufferViews": {
        "mesh_view": {
            "buffer": "../../download/6ug3l6g06yqk/6ug3l6g06yqk",
            "byteOffset": 0,
            "byteLength": 3408,
            "target": 34962
        },
        "mesh_view_0": {
            "buffer": "../../download/6ug3l6g06yqk/6ug3l6g06yqk",
            "byteOffset": 3408,
            "byteLength": 3408,
            "target": 34962
        },
        "mesh_view_1": {
            "buffer": "../../download/6ug3l6g06yqk/6ug3l6g06yqk",
            "byteOffset": 6816,
            "byteLength": 2272,
            "target": 34962
        },
        "mesh_view_2": {
            "buffer": "../../download/6ug3l6g06yqk/6ug3l6g06yqk",
            "byteOffset": 9088,
            "byteLength": 960,
            "target": 34963
        }
    },
    "materials": {
        "mat": {
            "values": {
                "ambient": [
                    0.0,
                    0.0,
                    0.0,
                    1.0
                ],
                "diffuse": [
                    0.0,
                    0.0,
                    0.0,
                    1.0
                ],
                "specular": [
                    0.0,
                    0.0,
                    0.0,
                    1.0
                ],
                "emission": [
                    0.0,
                    0.0,
                    0.0,
                    1.0
                ],
                "shininess": 0.0
            }
        }
    },
    "meshes": {
        "mesh": {
            "name": "",
            "primitives": [
                {
                    "mode": 4,
                    "material": "mat",
                    "indices": "mesh_accessor_2",
                    "attributes": {
                        "POSITION": "mesh_accessor",
                        "NORMAL": "mesh_accessor_0",
                        "TEXCOORD_0": "mesh_accessor_1"
                    }
                }
            ]
        }
    },
    "nodes": {
        "RootNode": {
            "children": [
                "Tea_Table"
            ]
        },
        "Tea_Table": {
            "matrix": [
                0.009999999776482582,
                0.0,
                0.0,
                0.0,
                0.0,
                0.009999999776482582,
                0.0,
                0.0,
                0.0,
                0.0,
                0.009999999776482582,
                0.0,
                0.0,
                0.0,
                0.0,
                1.0
            ],
            "meshes": [
                "mesh"
            ]
        }
    },
    "scenes": {
        "defaultScene": {
            "nodes": [
                "RootNode"
            ]
        }
    },
    "scene": "defaultScene"
}